<svg xmlns="http://www.w3.org/2000/svg" xmlns:xlink="http://www.w3.org/1999/xlink" width="500" zoomAndPan="magnify" viewBox="0 0 375 374.999991" height="500" preserveAspectRatio="xMidYMid meet" version="1.0"><defs><g/><clipPath id="id1"><path d="M 57.679688 50.882812 L 315.679688 50.882812 L 315.679688 308.882812 L 57.679688 308.882812 Z M 57.679688 50.882812 " clip-rule="nonzero"/></clipPath><clipPath id="id2"><path d="M 87.207031 72.804688 L 288 72.804688 L 288 144 L 87.207031 144 Z M 87.207031 72.804688 " clip-rule="nonzero"/></clipPath><clipPath id="id3"><path d="M 87.207031 216 L 288 216 L 288 287.304688 L 87.207031 287.304688 Z M 87.207031 216 " clip-rule="nonzero"/></clipPath><clipPath id="id4"><path d="M 268.992188 155.222656 L 306.921875 155.222656 L 306.921875 204.722656 L 268.992188 204.722656 Z M 268.992188 155.222656 " clip-rule="nonzero"/></clipPath><clipPath id="id5"><path d="M 66.703125 155.222656 L 104.917969 155.222656 L 104.917969 204.722656 L 66.703125 204.722656 Z M 66.703125 155.222656 " clip-rule="nonzero"/></clipPath><clipPath id="id6"><path d="M 150.511719 124.144531 L 224 124.144531 L 224 235.894531 L 150.511719 235.894531 Z M 150.511719 124.144531 " clip-rule="nonzero"/></clipPath></defs><g clip-path="url(#id1)"><path fill="#ffffff" d="M 315.679688 179.882812 C 315.679688 181.992188 315.628906 184.105469 315.523438 186.210938 C 315.421875 188.320312 315.265625 190.425781 315.058594 192.527344 C 314.851562 194.628906 314.59375 196.722656 314.285156 198.8125 C 313.972656 200.898438 313.613281 202.980469 313.199219 205.050781 C 312.789062 207.121094 312.328125 209.179688 311.8125 211.226562 C 311.300781 213.273438 310.738281 215.308594 310.125 217.328125 C 309.511719 219.351562 308.851562 221.355469 308.140625 223.339844 C 307.425781 225.328125 306.667969 227.296875 305.859375 229.25 C 305.050781 231.199219 304.195312 233.128906 303.292969 235.039062 C 302.390625 236.945312 301.441406 238.832031 300.449219 240.691406 C 299.453125 242.554688 298.410156 244.390625 297.328125 246.203125 C 296.242188 248.011719 295.113281 249.796875 293.9375 251.550781 C 292.765625 253.304688 291.550781 255.03125 290.292969 256.726562 C 289.035156 258.421875 287.738281 260.085938 286.398438 261.71875 C 285.058594 263.351562 283.679688 264.949219 282.261719 266.515625 C 280.84375 268.078125 279.390625 269.605469 277.894531 271.097656 C 276.402344 272.59375 274.875 274.046875 273.3125 275.464844 C 271.746094 276.882812 270.148438 278.261719 268.515625 279.601562 C 266.882812 280.941406 265.21875 282.238281 263.523438 283.496094 C 261.828125 284.753906 260.105469 285.96875 258.347656 287.140625 C 256.59375 288.316406 254.808594 289.445312 253 290.53125 C 251.1875 291.613281 249.351562 292.65625 247.488281 293.652344 C 245.628906 294.644531 243.742188 295.59375 241.835938 296.496094 C 239.925781 297.398438 237.996094 298.253906 236.046875 299.0625 C 234.09375 299.871094 232.125 300.628906 230.136719 301.339844 C 228.152344 302.054688 226.148438 302.714844 224.125 303.328125 C 222.105469 303.941406 220.070312 304.503906 218.023438 305.015625 C 215.976562 305.53125 213.917969 305.992188 211.847656 306.402344 C 209.777344 306.816406 207.695312 307.175781 205.609375 307.488281 C 203.519531 307.796875 201.425781 308.054688 199.324219 308.261719 C 197.222656 308.46875 195.117188 308.625 193.007812 308.726562 C 190.902344 308.832031 188.789062 308.882812 186.679688 308.882812 C 184.570312 308.882812 182.457031 308.832031 180.351562 308.726562 C 178.242188 308.625 176.136719 308.46875 174.035156 308.261719 C 171.933594 308.054688 169.839844 307.796875 167.75 307.488281 C 165.664062 307.175781 163.582031 306.816406 161.511719 306.402344 C 159.441406 305.992188 157.382812 305.53125 155.335938 305.015625 C 153.289062 304.503906 151.253906 303.941406 149.234375 303.328125 C 147.210938 302.714844 145.207031 302.054688 143.222656 301.339844 C 141.234375 300.628906 139.265625 299.871094 137.3125 299.0625 C 135.363281 298.253906 133.433594 297.398438 131.523438 296.496094 C 129.617188 295.59375 127.730469 294.644531 125.871094 293.652344 C 124.007812 292.65625 122.171875 291.613281 120.359375 290.53125 C 118.550781 289.445312 116.765625 288.316406 115.011719 287.140625 C 113.253906 285.96875 111.53125 284.753906 109.835938 283.496094 C 108.140625 282.238281 106.476562 280.941406 104.84375 279.601562 C 103.210938 278.261719 101.613281 276.882812 100.046875 275.464844 C 98.484375 274.046875 96.957031 272.59375 95.460938 271.097656 C 93.96875 269.605469 92.515625 268.078125 91.097656 266.515625 C 89.679688 264.949219 88.300781 263.351562 86.960938 261.71875 C 85.621094 260.085938 84.324219 258.421875 83.066406 256.726562 C 81.808594 255.03125 80.59375 253.304688 79.421875 251.550781 C 78.246094 249.796875 77.117188 248.011719 76.03125 246.203125 C 74.949219 244.390625 73.90625 242.554688 72.910156 240.691406 C 71.917969 238.832031 70.96875 236.945312 70.066406 235.039062 C 69.164062 233.128906 68.308594 231.199219 67.5 229.25 C 66.691406 227.296875 65.933594 225.328125 65.21875 223.339844 C 64.507812 221.355469 63.847656 219.347656 63.234375 217.328125 C 62.621094 215.308594 62.058594 213.273438 61.546875 211.226562 C 61.03125 209.179688 60.570312 207.121094 60.160156 205.050781 C 59.746094 202.980469 59.386719 200.898438 59.074219 198.8125 C 58.765625 196.722656 58.507812 194.628906 58.300781 192.527344 C 58.09375 190.425781 57.9375 188.320312 57.835938 186.210938 C 57.730469 184.105469 57.679688 181.992188 57.679688 179.882812 C 57.679688 177.769531 57.730469 175.660156 57.835938 173.554688 C 57.9375 171.445312 58.09375 169.339844 58.300781 167.238281 C 58.507812 165.136719 58.765625 163.042969 59.074219 160.953125 C 59.386719 158.867188 59.746094 156.785156 60.160156 154.714844 C 60.570312 152.644531 61.03125 150.585938 61.546875 148.539062 C 62.058594 146.492188 62.621094 144.457031 63.234375 142.4375 C 63.847656 140.414062 64.507812 138.410156 65.21875 136.425781 C 65.933594 134.4375 66.691406 132.46875 67.5 130.515625 C 68.308594 128.566406 69.164062 126.636719 70.066406 124.726562 C 70.96875 122.820312 71.917969 120.933594 72.910156 119.074219 C 73.90625 117.210938 74.949219 115.375 76.03125 113.5625 C 77.117188 111.753906 78.246094 109.96875 79.421875 108.214844 C 80.59375 106.457031 81.808594 104.734375 83.066406 103.039062 C 84.324219 101.339844 85.621094 99.679688 86.960938 98.046875 C 88.300781 96.414062 89.679688 94.816406 91.097656 93.25 C 92.515625 91.6875 93.96875 90.160156 95.460938 88.664062 C 96.957031 87.171875 98.484375 85.71875 100.046875 84.300781 C 101.613281 82.882812 103.210938 81.503906 104.84375 80.164062 C 106.476562 78.824219 108.140625 77.527344 109.835938 76.269531 C 111.53125 75.011719 113.253906 73.796875 115.011719 72.625 C 116.765625 71.449219 118.550781 70.320312 120.359375 69.234375 C 122.171875 68.148438 124.007812 67.109375 125.871094 66.113281 C 127.730469 65.121094 129.617188 64.171875 131.523438 63.269531 C 133.433594 62.367188 135.363281 61.511719 137.3125 60.703125 C 139.265625 59.894531 141.234375 59.132812 143.222656 58.421875 C 145.207031 57.710938 147.210938 57.050781 149.234375 56.4375 C 151.253906 55.824219 153.289062 55.261719 155.335938 54.75 C 157.382812 54.234375 159.441406 53.773438 161.511719 53.363281 C 163.582031 52.949219 165.664062 52.589844 167.75 52.277344 C 169.839844 51.96875 171.933594 51.710938 174.035156 51.503906 C 176.136719 51.296875 178.242188 51.140625 180.351562 51.039062 C 182.457031 50.933594 184.570312 50.882812 186.679688 50.882812 C 188.789062 50.882812 190.902344 50.933594 193.007812 51.039062 C 195.117188 51.140625 197.222656 51.296875 199.324219 51.503906 C 201.425781 51.710938 203.519531 51.96875 205.609375 52.277344 C 207.695312 52.589844 209.777344 52.949219 211.847656 53.363281 C 213.917969 53.773438 215.976562 54.234375 218.023438 54.75 C 220.070312 55.261719 222.105469 55.824219 224.125 56.4375 C 226.148438 57.050781 228.152344 57.710938 230.136719 58.421875 C 232.125 59.132812 234.09375 59.894531 236.046875 60.703125 C 237.996094 61.511719 239.925781 62.367188 241.835938 63.269531 C 243.742188 64.171875 245.628906 65.121094 247.488281 66.113281 C 249.351562 67.109375 251.1875 68.148438 253 69.234375 C 254.808594 70.320312 256.59375 71.449219 258.347656 72.625 C 260.105469 73.796875 261.828125 75.011719 263.523438 76.269531 C 265.21875 77.527344 266.882812 78.824219 268.515625 80.164062 C 270.148438 81.503906 271.746094 82.882812 273.3125 84.300781 C 274.875 85.71875 276.402344 87.171875 277.894531 88.664062 C 279.390625 90.160156 280.84375 91.6875 282.261719 93.25 C 283.679688 94.816406 285.058594 96.414062 286.398438 98.046875 C 287.738281 99.679688 289.035156 101.339844 290.292969 103.039062 C 291.550781 104.734375 292.765625 106.457031 293.9375 108.214844 C 295.113281 109.96875 296.242188 111.753906 297.328125 113.5625 C 298.410156 115.375 299.453125 117.210938 300.449219 119.074219 C 301.441406 120.933594 302.390625 122.820312 303.292969 124.726562 C 304.195312 126.636719 305.050781 128.566406 305.859375 130.515625 C 306.667969 132.46875 307.425781 134.4375 308.140625 136.425781 C 308.851562 138.410156 309.511719 140.414062 310.125 142.4375 C 310.738281 144.457031 311.300781 146.492188 311.8125 148.539062 C 312.328125 150.585938 312.789062 152.644531 313.199219 154.714844 C 313.613281 156.785156 313.972656 158.867188 314.285156 160.953125 C 314.59375 163.042969 314.851562 165.136719 315.058594 167.238281 C 315.265625 169.339844 315.421875 171.445312 315.523438 173.554688 C 315.628906 175.660156 315.679688 177.769531 315.679688 179.882812 Z M 315.679688 179.882812 " fill-opacity="1" fill-rule="nonzero"/></g><g clip-path="url(#id2)"><path fill="#ffbd59" d="M 285.882812 143.457031 C 285.148438 143.457031 284.457031 143.011719 284.171875 142.292969 C 268.535156 102.3125 230.667969 76.476562 187.703125 76.476562 C 144.734375 76.476562 106.863281 102.3125 91.230469 142.292969 C 90.863281 143.238281 89.796875 143.699219 88.851562 143.332031 C 87.90625 142.964844 87.441406 141.902344 87.808594 140.957031 C 95.574219 121.097656 108.976562 104.144531 126.5625 91.921875 C 144.558594 79.414062 165.703125 72.804688 187.703125 72.804688 C 209.703125 72.804688 230.84375 79.414062 248.84375 91.921875 C 266.425781 104.144531 279.832031 121.097656 287.597656 140.957031 C 287.964844 141.902344 287.5 142.964844 286.554688 143.332031 C 286.335938 143.417969 286.109375 143.457031 285.882812 143.457031 Z M 285.882812 143.457031 " fill-opacity="1" fill-rule="nonzero"/></g><g clip-path="url(#id3)"><path fill="#ffbd59" d="M 187.703125 287.304688 C 165.699219 287.304688 144.558594 280.695312 126.5625 268.1875 C 108.972656 255.96875 95.574219 239.011719 87.808594 219.15625 C 87.441406 218.210938 87.90625 217.144531 88.851562 216.777344 C 89.796875 216.410156 90.863281 216.875 91.230469 217.820312 C 106.863281 257.800781 144.734375 283.632812 187.703125 283.632812 C 230.667969 283.632812 268.535156 257.800781 284.171875 217.820312 C 284.539062 216.875 285.605469 216.410156 286.550781 216.777344 C 287.496094 217.144531 287.960938 218.210938 287.59375 219.15625 C 279.824219 239.011719 266.425781 255.96875 248.835938 268.1875 C 230.84375 280.695312 209.703125 287.304688 187.703125 287.304688 Z M 187.703125 287.304688 " fill-opacity="1" fill-rule="nonzero"/></g><path fill="#ffbd59" d="M 203.082031 232.75 C 202.988281 232.75 202.898438 232.75 202.804688 232.746094 C 180.914062 231.871094 160.058594 223.132812 144.082031 208.148438 C 142.761719 206.914062 142 205.210938 142 203.484375 C 142 201.914062 142.605469 200.480469 143.707031 199.441406 C 146.011719 197.269531 149.707031 197.332031 152.113281 199.589844 C 166.035156 212.644531 184.199219 220.257812 203.273438 221.019531 C 206.578125 221.15625 209.214844 223.742188 209.277344 226.902344 C 209.308594 228.417969 208.710938 229.855469 207.589844 230.953125 C 206.421875 232.109375 204.789062 232.75 203.082031 232.75 Z M 147.761719 201.523438 C 147.195312 201.523438 146.644531 201.714844 146.226562 202.117188 C 145.867188 202.449219 145.675781 202.9375 145.675781 203.480469 C 145.675781 204.199219 146.011719 204.925781 146.59375 205.472656 C 161.925781 219.851562 181.941406 228.234375 202.953125 229.078125 C 203.757812 229.109375 204.503906 228.839844 205.019531 228.339844 C 205.410156 227.957031 205.617188 227.476562 205.605469 226.988281 C 205.578125 225.761719 204.492188 224.75 203.125 224.695312 C 183.175781 223.894531 164.164062 215.933594 149.601562 202.277344 C 149.074219 201.777344 148.40625 201.523438 147.761719 201.523438 Z M 147.761719 201.523438 " fill-opacity="1" fill-rule="nonzero"/><path fill="#ffbd59" d="M 200.914062 224.566406 C 200.300781 224.566406 199.703125 224.261719 199.355469 223.707031 C 198.8125 222.851562 199.070312 221.714844 199.929688 221.175781 C 207.335938 216.511719 210.597656 208.609375 212.015625 203.070312 C 206.21875 208.28125 200.5625 208.3125 200.265625 208.316406 L 196.886719 208.289062 L 198.738281 205.472656 C 219.316406 174.175781 214.804688 149.328125 211.921875 140.105469 C 208.542969 146.566406 200.46875 159.261719 186.179688 166.90625 C 175.515625 172.609375 175.628906 188.804688 175.632812 188.96875 L 175.710938 194.363281 L 172.355469 190.136719 C 170.144531 187.347656 169.363281 182.855469 169.101562 179.515625 C 159.367188 189.445312 157.378906 198.175781 156.019531 204.125 L 155.996094 204.222656 C 155.769531 205.210938 154.785156 205.828125 153.796875 205.605469 C 152.808594 205.378906 152.1875 204.394531 152.414062 203.40625 L 152.4375 203.308594 C 153.929688 196.773438 156.429688 185.828125 169.601562 173.949219 L 172.839844 171.03125 L 172.667969 175.386719 C 172.625 176.488281 172.65625 178.503906 172.917969 180.671875 C 174.226562 174.855469 177.289062 167.492188 184.441406 163.667969 C 202.625 153.941406 210.324219 134.925781 210.398438 134.738281 L 211.910156 130.925781 L 213.75 134.589844 C 213.914062 134.910156 217.714844 142.617188 218.132812 155.515625 C 218.492188 166.628906 216.277344 183.765625 204.179688 203.742188 C 206.769531 202.71875 210.261719 200.527344 213.398438 195.863281 L 217.074219 190.398438 L 216.761719 196.976562 C 216.722656 197.730469 215.722656 215.578125 201.894531 224.28125 C 201.582031 224.480469 201.246094 224.566406 200.914062 224.566406 Z M 200.914062 224.566406 " fill-opacity="1" fill-rule="nonzero"/><path fill="#ffbd59" d="M 190.609375 172.035156 C 189.664062 172.035156 188.703125 171.851562 187.78125 171.46875 C 185.554688 170.535156 183.929688 168.570312 183.429688 166.210938 L 187.027344 165.453125 C 187.273438 166.632812 188.085938 167.617188 189.199219 168.085938 C 191.0625 168.863281 193.222656 167.984375 194.003906 166.121094 C 194.699219 164.457031 194.101562 162.5625 192.585938 161.601562 L 194.546875 158.496094 C 197.585938 160.414062 198.785156 164.21875 197.394531 167.539062 C 196.214844 170.34375 193.480469 172.035156 190.609375 172.035156 Z M 190.609375 172.035156 " fill-opacity="1" fill-rule="nonzero"/><path fill="#ffbd59" d="M 181.492188 219.65625 L 178.851562 217.097656 C 179.167969 216.773438 179.417969 216.390625 179.59375 215.964844 C 180.375 214.101562 179.492188 211.945312 177.628906 211.164062 C 176.722656 210.78125 175.726562 210.78125 174.816406 211.148438 C 173.90625 211.515625 173.199219 212.222656 172.824219 213.128906 C 172.648438 213.539062 172.550781 213.972656 172.539062 214.417969 L 168.863281 214.289062 C 168.894531 213.402344 169.082031 212.53125 169.433594 211.710938 C 170.191406 209.902344 171.609375 208.496094 173.425781 207.753906 C 175.238281 207.007812 177.238281 207.019531 179.046875 207.777344 C 182.78125 209.339844 184.550781 213.652344 182.984375 217.382812 C 182.628906 218.238281 182.128906 219 181.492188 219.65625 Z M 181.492188 219.65625 " fill-opacity="1" fill-rule="nonzero"/><path fill="#ffbd59" d="M 208.597656 193.253906 C 208.074219 193.15625 207.554688 193.003906 207.054688 192.796875 C 203.320312 191.234375 201.550781 186.921875 203.117188 183.191406 C 204.683594 179.457031 208.996094 177.695312 212.730469 179.257812 L 211.3125 182.644531 C 210.40625 182.261719 209.410156 182.257812 208.5 182.628906 C 207.589844 183.003906 206.882812 183.703125 206.507812 184.609375 C 205.726562 186.472656 206.609375 188.628906 208.472656 189.410156 C 208.722656 189.515625 208.984375 189.59375 209.246094 189.640625 Z M 208.597656 193.253906 " fill-opacity="1" fill-rule="nonzero"/><path fill="#ffbd59" d="M 188.882812 200.316406 C 187.9375 200.316406 186.976562 200.132812 186.050781 199.746094 C 182.316406 198.183594 180.550781 193.871094 182.117188 190.140625 C 182.875 188.332031 184.292969 186.925781 186.109375 186.183594 C 187.921875 185.441406 189.921875 185.449219 191.730469 186.207031 C 195.464844 187.773438 197.234375 192.082031 195.667969 195.8125 C 194.492188 198.621094 191.757812 200.316406 188.882812 200.316406 Z M 185.503906 191.558594 C 184.726562 193.421875 185.605469 195.578125 187.472656 196.359375 C 189.335938 197.140625 191.496094 196.257812 192.277344 194.394531 C 193.058594 192.53125 192.175781 190.375 190.3125 189.59375 C 188.441406 188.8125 186.292969 189.695312 185.503906 191.558594 Z M 185.503906 191.558594 " fill-opacity="1" fill-rule="nonzero"/><path fill="#ffbd59" d="M 194.53125 223.5625 C 193.6875 223.5625 192.929688 222.976562 192.742188 222.121094 C 192.414062 220.636719 192.550781 219.109375 193.140625 217.707031 C 193.898438 215.898438 195.316406 214.496094 197.132812 213.753906 C 198.945312 213.007812 200.945312 213.019531 202.753906 213.773438 C 204.332031 214.4375 205.636719 215.628906 206.425781 217.144531 C 206.894531 218.042969 206.550781 219.15625 205.648438 219.621094 C 204.75 220.089844 203.640625 219.746094 203.167969 218.847656 C 202.769531 218.082031 202.132812 217.503906 201.335938 217.167969 C 200.429688 216.785156 199.433594 216.78125 198.523438 217.152344 C 197.613281 217.523438 196.90625 218.226562 196.53125 219.132812 C 196.238281 219.835938 196.167969 220.597656 196.328125 221.335938 C 196.542969 222.328125 195.917969 223.304688 194.925781 223.523438 C 194.792969 223.546875 194.660156 223.5625 194.53125 223.5625 Z M 194.53125 223.5625 " fill-opacity="1" fill-rule="nonzero"/><path fill="#ffbd59" d="M 160.75 197.898438 C 159.785156 197.898438 158.828125 197.703125 157.910156 197.324219 C 157.214844 197.03125 156.570312 196.636719 155.996094 196.152344 L 158.375 193.351562 C 158.660156 193.597656 158.980469 193.792969 159.332031 193.941406 C 160.238281 194.320312 161.234375 194.328125 162.144531 193.953125 C 163.050781 193.582031 163.757812 192.878906 164.136719 191.976562 C 164.917969 190.113281 164.035156 187.957031 162.171875 187.175781 C 162.082031 187.136719 162 187.105469 161.914062 187.078125 L 163.085938 183.597656 C 163.253906 183.652344 163.425781 183.71875 163.59375 183.792969 C 167.328125 185.355469 169.09375 189.667969 167.527344 193.398438 C 166.769531 195.207031 165.347656 196.613281 163.535156 197.355469 C 162.632812 197.714844 161.691406 197.898438 160.75 197.898438 Z M 160.75 197.898438 " fill-opacity="1" fill-rule="nonzero"/><path fill="#ffbd59" d="M 215.144531 165.464844 C 214.179688 165.464844 213.21875 165.269531 212.308594 164.890625 C 210.5 164.132812 209.09375 162.714844 208.351562 160.902344 C 207.605469 159.085938 207.613281 157.089844 208.371094 155.28125 C 209.820312 151.832031 213.625 150.015625 217.214844 151.074219 L 216.175781 154.59375 C 214.386719 154.070312 212.484375 154.96875 211.761719 156.695312 C 211.382812 157.601562 211.382812 158.597656 211.75 159.503906 C 212.117188 160.414062 212.824219 161.121094 213.730469 161.496094 C 214.445312 161.796875 215.222656 161.863281 215.976562 161.691406 L 216.804688 165.265625 C 216.253906 165.398438 215.699219 165.464844 215.144531 165.464844 Z M 215.144531 165.464844 " fill-opacity="1" fill-rule="nonzero"/><path fill="#ffbd59" d="M 181.261719 161.195312 L 180.636719 161.054688 C 178.964844 160.695312 177.703125 158.972656 177.5 156.773438 C 177.265625 154.269531 178.421875 150.992188 182.378906 149.320312 C 187.183594 147.285156 189.460938 145.230469 189.484375 145.210938 L 192.792969 142.1875 L 192.566406 146.652344 C 192.550781 146.957031 192.355469 149.738281 190.253906 153.671875 C 188.035156 157.828125 182.09375 160.785156 181.839844 160.910156 Z M 187.527344 150.90625 C 186.480469 151.480469 185.242188 152.09375 183.8125 152.703125 C 181.738281 153.578125 181.265625 154.988281 181.167969 155.75 C 181.101562 156.277344 181.175781 156.722656 181.28125 157.039062 C 183.070312 155.992188 185.894531 154.035156 187.007812 151.949219 C 187.199219 151.585938 187.371094 151.238281 187.527344 150.90625 Z M 187.527344 150.90625 " fill-opacity="1" fill-rule="nonzero"/><path fill="#ffbd59" d="M 187.703125 254.039062 C 146.875 254.039062 113.65625 220.847656 113.65625 180.050781 C 113.65625 139.253906 146.875 106.0625 187.703125 106.0625 C 228.527344 106.0625 261.746094 139.253906 261.746094 180.050781 C 261.746094 220.851562 228.527344 254.039062 187.703125 254.039062 Z M 187.703125 109.738281 C 148.898438 109.738281 117.332031 141.28125 117.332031 180.054688 C 117.332031 218.828125 148.898438 250.371094 187.703125 250.371094 C 226.503906 250.371094 258.070312 218.828125 258.070312 180.054688 C 258.070312 141.28125 226.503906 109.738281 187.703125 109.738281 Z M 187.703125 109.738281 " fill-opacity="1" fill-rule="nonzero"/><path fill="#004aad" d="M 186.625 117.203125 C 152.039062 117.203125 124 145.242188 124 179.828125 C 124 214.414062 152.039062 242.453125 186.625 242.453125 C 221.210938 242.453125 249.25 214.414062 249.25 179.828125 C 249.25 145.242188 221.210938 117.203125 186.625 117.203125 " fill-opacity="1" fill-rule="nonzero"/><g clip-path="url(#id4)"><path fill="#004aad" d="M 287.734375 193.953125 L 287.734375 203.09375 L 276.210938 203.09375 L 276.210938 204.722656 L 299.992188 204.722656 L 299.992188 203.09375 L 289.351562 203.09375 L 289.351562 193.953125 L 291.941406 193.953125 L 291.941406 187.828125 L 298.042969 187.828125 L 298.042969 180.980469 L 301.722656 180.980469 C 301.863281 181.433594 302.101562 181.835938 302.425781 182.15625 C 302.933594 182.671875 303.632812 182.984375 304.40625 182.984375 C 305.179688 182.984375 305.878906 182.671875 306.382812 182.15625 C 306.894531 181.648438 307.207031 180.941406 307.207031 180.164062 C 307.207031 179.386719 306.894531 178.679688 306.382812 178.171875 C 305.878906 177.65625 305.179688 177.34375 304.40625 177.34375 C 303.632812 177.34375 302.933594 177.65625 302.425781 178.171875 C 302.101562 178.496094 301.855469 178.90625 301.722656 179.359375 L 298.042969 179.359375 L 298.042969 169.640625 C 298.484375 169.507812 298.875 169.265625 299.195312 168.945312 C 299.699219 168.433594 300.015625 167.726562 300.015625 166.949219 C 300.015625 166.167969 299.699219 165.464844 299.195312 164.953125 C 298.691406 164.441406 297.988281 164.125 297.21875 164.125 C 296.441406 164.125 295.742188 164.441406 295.234375 164.953125 C 294.726562 165.464844 294.414062 166.167969 294.414062 166.949219 C 294.414062 167.726562 294.726562 168.433594 295.234375 168.945312 C 295.5625 169.273438 295.96875 169.523438 296.425781 169.65625 L 296.425781 186.203125 L 290.328125 186.203125 L 290.328125 192.320312 L 286.765625 192.320312 L 286.765625 183.398438 L 292.042969 183.398438 L 292.042969 170.902344 L 287.410156 170.902344 L 287.410156 160.671875 C 287.769531 160.527344 288.101562 160.308594 288.371094 160.035156 C 288.878906 159.527344 289.191406 158.820312 289.191406 158.039062 C 289.191406 157.261719 288.878906 156.558594 288.371094 156.042969 C 287.867188 155.535156 287.164062 155.222656 286.394531 155.222656 C 285.621094 155.222656 284.917969 155.535156 284.410156 156.042969 C 283.90625 156.558594 283.589844 157.261719 283.589844 158.039062 C 283.589844 158.820312 283.90625 159.527344 284.410156 160.035156 C 284.785156 160.410156 285.257812 160.679688 285.789062 160.796875 L 285.789062 172.53125 L 290.429688 172.53125 L 290.429688 181.773438 L 286.761719 181.773438 L 286.761719 177.800781 L 279.089844 177.800781 L 279.089844 173.121094 C 279.476562 172.980469 279.828125 172.75 280.109375 172.464844 C 280.617188 171.953125 280.933594 171.246094 280.933594 170.46875 C 280.933594 169.691406 280.617188 168.984375 280.109375 168.476562 C 279.605469 167.960938 278.90625 167.644531 278.132812 167.644531 C 277.359375 167.644531 276.660156 167.960938 276.148438 168.476562 C 275.644531 168.984375 275.328125 169.691406 275.328125 170.46875 C 275.328125 171.246094 275.644531 171.953125 276.148438 172.464844 C 276.511719 172.824219 276.964844 173.089844 277.472656 173.210938 L 277.472656 179.429688 L 285.152344 179.429688 L 285.152344 187.570312 L 280.925781 187.570312 L 280.925781 182.738281 L 274.480469 182.738281 C 274.347656 182.285156 274.101562 181.875 273.773438 181.546875 C 273.265625 181.035156 272.566406 180.71875 271.792969 180.71875 C 271.023438 180.71875 270.320312 181.035156 269.816406 181.546875 C 269.308594 182.058594 268.992188 182.761719 268.992188 183.539062 C 268.992188 184.320312 269.308594 185.027344 269.816406 185.539062 C 270.320312 186.046875 271.023438 186.363281 271.792969 186.363281 C 272.566406 186.363281 273.265625 186.046875 273.773438 185.539062 C 274.09375 185.214844 274.335938 184.8125 274.472656 184.367188 L 279.3125 184.367188 L 279.3125 189.199219 L 285.152344 189.199219 L 285.152344 193.953125 Z M 296.378906 166.101562 C 296.585938 165.890625 296.886719 165.75 297.21875 165.75 C 297.542969 165.75 297.839844 165.890625 298.050781 166.101562 C 298.265625 166.316406 298.398438 166.621094 298.398438 166.949219 C 298.398438 167.277344 298.265625 167.578125 298.050781 167.796875 C 297.839844 168.007812 297.542969 168.144531 297.21875 168.144531 C 296.886719 168.144531 296.585938 168.007812 296.378906 167.796875 C 296.160156 167.578125 296.027344 167.277344 296.027344 166.949219 C 296.027344 166.621094 296.160156 166.316406 296.378906 166.101562 Z M 303.570312 179.320312 C 303.78125 179.105469 304.078125 178.972656 304.40625 178.972656 C 304.734375 178.972656 305.03125 179.105469 305.242188 179.320312 C 305.460938 179.539062 305.59375 179.835938 305.59375 180.164062 C 305.59375 180.496094 305.460938 180.792969 305.242188 181.011719 C 305.03125 181.226562 304.734375 181.359375 304.40625 181.359375 C 304.078125 181.359375 303.78125 181.226562 303.570312 181.011719 C 303.351562 180.792969 303.21875 180.496094 303.21875 180.164062 C 303.21875 179.835938 303.351562 179.539062 303.570312 179.320312 Z M 285.550781 157.199219 C 285.765625 156.980469 286.0625 156.84375 286.394531 156.84375 C 286.71875 156.84375 287.011719 156.980469 287.230469 157.199219 C 287.445312 157.414062 287.578125 157.710938 287.578125 158.039062 C 287.578125 158.371094 287.445312 158.667969 287.230469 158.882812 C 287.011719 159.105469 286.71875 159.234375 286.394531 159.234375 C 286.0625 159.234375 285.765625 159.105469 285.550781 158.882812 C 285.335938 158.667969 285.207031 158.371094 285.207031 158.039062 C 285.207031 157.710938 285.335938 157.414062 285.550781 157.199219 Z M 277.292969 169.625 C 277.507812 169.410156 277.804688 169.277344 278.132812 169.277344 C 278.457031 169.277344 278.757812 169.410156 278.96875 169.625 C 279.183594 169.839844 279.316406 170.136719 279.316406 170.46875 C 279.316406 170.796875 279.183594 171.09375 278.96875 171.3125 C 278.757812 171.527344 278.457031 171.660156 278.132812 171.660156 C 277.804688 171.660156 277.507812 171.527344 277.292969 171.3125 C 277.078125 171.09375 276.945312 170.796875 276.945312 170.46875 C 276.945312 170.136719 277.078125 169.839844 277.292969 169.625 Z M 270.957031 182.695312 C 271.167969 182.484375 271.46875 182.347656 271.792969 182.347656 C 272.121094 182.347656 272.417969 182.484375 272.632812 182.695312 C 272.847656 182.910156 272.980469 183.210938 272.980469 183.539062 C 272.980469 183.871094 272.847656 184.167969 272.632812 184.386719 C 272.417969 184.605469 272.121094 184.734375 271.792969 184.734375 C 271.46875 184.734375 271.167969 184.605469 270.957031 184.386719 C 270.742188 184.167969 270.609375 183.871094 270.609375 183.539062 C 270.609375 183.210938 270.742188 182.910156 270.957031 182.695312 " fill-opacity="1" fill-rule="nonzero"/></g><g clip-path="url(#id5)"><path fill="#004aad" d="M 86.175781 193.953125 L 86.175781 203.09375 L 97.699219 203.09375 L 97.699219 204.722656 L 73.917969 204.722656 L 73.917969 203.09375 L 84.558594 203.09375 L 84.558594 193.953125 L 81.96875 193.953125 L 81.96875 187.828125 L 75.867188 187.828125 L 75.867188 180.980469 L 72.1875 180.980469 C 72.050781 181.433594 71.808594 181.835938 71.484375 182.15625 C 70.976562 182.671875 70.28125 182.984375 69.503906 182.984375 C 68.730469 182.984375 68.03125 182.671875 67.527344 182.15625 C 67.019531 181.648438 66.703125 180.941406 66.703125 180.164062 C 66.703125 179.386719 67.019531 178.679688 67.527344 178.171875 C 68.03125 177.65625 68.730469 177.34375 69.503906 177.34375 C 70.28125 177.34375 70.976562 177.65625 71.484375 178.171875 C 71.8125 178.496094 72.054688 178.90625 72.1875 179.359375 L 75.867188 179.359375 L 75.867188 169.640625 C 75.429688 169.507812 75.035156 169.265625 74.714844 168.945312 C 74.210938 168.433594 73.894531 167.726562 73.894531 166.949219 C 73.894531 166.167969 74.210938 165.464844 74.714844 164.953125 C 75.222656 164.441406 75.925781 164.125 76.695312 164.125 C 77.46875 164.125 78.167969 164.441406 78.675781 164.953125 C 79.183594 165.464844 79.496094 166.167969 79.496094 166.949219 C 79.496094 167.726562 79.183594 168.433594 78.675781 168.945312 C 78.347656 169.273438 77.941406 169.523438 77.484375 169.65625 L 77.484375 186.203125 L 83.582031 186.203125 L 83.582031 192.320312 L 87.144531 192.320312 L 87.144531 183.398438 L 81.867188 183.398438 L 81.867188 170.902344 L 86.503906 170.902344 L 86.503906 160.671875 C 86.140625 160.527344 85.8125 160.308594 85.539062 160.035156 C 85.03125 159.527344 84.71875 158.820312 84.71875 158.039062 C 84.71875 157.261719 85.03125 156.558594 85.539062 156.042969 C 86.046875 155.535156 86.746094 155.222656 87.519531 155.222656 C 88.289062 155.222656 88.996094 155.535156 89.5 156.042969 C 90.003906 156.558594 90.320312 157.261719 90.320312 158.039062 C 90.320312 158.820312 90.003906 159.527344 89.5 160.035156 C 89.128906 160.410156 88.652344 160.679688 88.121094 160.796875 L 88.121094 172.53125 L 83.480469 172.53125 L 83.480469 181.773438 L 87.148438 181.773438 L 87.148438 177.800781 L 94.824219 177.800781 L 94.824219 173.121094 C 94.433594 172.980469 94.085938 172.75 93.800781 172.464844 C 93.292969 171.953125 92.976562 171.246094 92.976562 170.46875 C 92.976562 169.691406 93.292969 168.984375 93.800781 168.476562 C 94.308594 167.960938 95.003906 167.644531 95.78125 167.644531 C 96.550781 167.644531 97.25 167.960938 97.761719 168.476562 C 98.265625 168.984375 98.582031 169.691406 98.582031 170.46875 C 98.582031 171.246094 98.265625 171.953125 97.761719 172.464844 C 97.402344 172.824219 96.945312 173.089844 96.4375 173.210938 L 96.4375 179.429688 L 88.761719 179.429688 L 88.761719 187.570312 L 92.984375 187.570312 L 92.984375 182.738281 L 99.429688 182.738281 C 99.5625 182.285156 99.808594 181.875 100.136719 181.546875 C 100.644531 181.035156 101.34375 180.71875 102.117188 180.71875 C 102.890625 180.71875 103.589844 181.035156 104.097656 181.546875 C 104.601562 182.058594 104.917969 182.761719 104.917969 183.539062 C 104.917969 184.320312 104.601562 185.027344 104.097656 185.539062 C 103.589844 186.046875 102.890625 186.363281 102.117188 186.363281 C 101.34375 186.363281 100.644531 186.046875 100.136719 185.539062 C 99.816406 185.214844 99.574219 184.8125 99.4375 184.367188 L 94.597656 184.367188 L 94.597656 189.199219 L 88.761719 189.199219 L 88.761719 193.953125 Z M 77.535156 166.101562 C 77.324219 165.890625 77.023438 165.75 76.695312 165.75 C 76.371094 165.75 76.074219 165.890625 75.859375 166.101562 C 75.644531 166.316406 75.511719 166.621094 75.511719 166.949219 C 75.511719 167.277344 75.644531 167.578125 75.859375 167.796875 C 76.074219 168.007812 76.371094 168.144531 76.695312 168.144531 C 77.023438 168.144531 77.324219 168.007812 77.535156 167.796875 C 77.75 167.578125 77.882812 167.277344 77.882812 166.949219 C 77.882812 166.621094 77.75 166.316406 77.535156 166.101562 Z M 70.339844 179.320312 C 70.128906 179.105469 69.832031 178.972656 69.503906 178.972656 C 69.175781 178.972656 68.878906 179.105469 68.667969 179.320312 C 68.449219 179.539062 68.320312 179.835938 68.320312 180.164062 C 68.320312 180.496094 68.449219 180.792969 68.667969 181.011719 C 68.878906 181.226562 69.175781 181.359375 69.503906 181.359375 C 69.832031 181.359375 70.128906 181.226562 70.339844 181.011719 C 70.558594 180.792969 70.691406 180.496094 70.691406 180.164062 C 70.691406 179.835938 70.558594 179.539062 70.339844 179.320312 Z M 88.359375 157.199219 C 88.144531 156.980469 87.847656 156.84375 87.519531 156.84375 C 87.191406 156.84375 86.898438 156.980469 86.679688 157.199219 C 86.464844 157.414062 86.332031 157.710938 86.332031 158.039062 C 86.332031 158.371094 86.464844 158.667969 86.679688 158.882812 C 86.898438 159.105469 87.191406 159.234375 87.519531 159.234375 C 87.847656 159.234375 88.144531 159.105469 88.359375 158.882812 C 88.574219 158.667969 88.703125 158.371094 88.703125 158.039062 C 88.703125 157.710938 88.574219 157.414062 88.359375 157.199219 Z M 96.617188 169.625 C 96.402344 169.410156 96.105469 169.277344 95.78125 169.277344 C 95.453125 169.277344 95.152344 169.410156 94.941406 169.625 C 94.726562 169.839844 94.59375 170.136719 94.59375 170.46875 C 94.59375 170.796875 94.726562 171.09375 94.941406 171.3125 C 95.152344 171.527344 95.453125 171.660156 95.78125 171.660156 C 96.105469 171.660156 96.402344 171.527344 96.617188 171.3125 C 96.832031 171.09375 96.964844 170.796875 96.964844 170.46875 C 96.964844 170.136719 96.832031 169.839844 96.617188 169.625 Z M 102.953125 182.695312 C 102.742188 182.484375 102.441406 182.347656 102.117188 182.347656 C 101.789062 182.347656 101.492188 182.484375 101.277344 182.695312 C 101.0625 182.910156 100.929688 183.210938 100.929688 183.539062 C 100.929688 183.871094 101.0625 184.167969 101.277344 184.386719 C 101.492188 184.605469 101.789062 184.734375 102.117188 184.734375 C 102.441406 184.734375 102.742188 184.605469 102.953125 184.386719 C 103.167969 184.167969 103.304688 183.871094 103.304688 183.539062 C 103.304688 183.210938 103.167969 182.910156 102.953125 182.695312 " fill-opacity="1" fill-rule="nonzero"/></g><g clip-path="url(#id6)"><path fill="#ffffff" d="M 223.113281 212.695312 C 223.015625 210.648438 221.992188 208.980469 220.796875 207.71875 C 222.171875 216.433594 214.773438 221.507812 214.773438 221.507812 C 217.527344 216.496094 213.15625 211.804688 213.15625 211.804688 C 215.261719 225.550781 202.46875 229.917969 202.46875 229.917969 C 207.648438 225.550781 204.65625 219.164062 204.65625 219.164062 C 203.601562 230.707031 194.296875 234.382812 189.949219 235.472656 C 189.273438 235.449219 188.585938 235.433594 187.894531 235.421875 C 188.371094 233.730469 187.972656 231.71875 187.5625 230.347656 C 187.386719 232.375 186.621094 232.808594 186.621094 232.808594 C 186.621094 229.347656 181.53125 223.035156 180.5625 221.867188 C 180.824219 224.675781 179.457031 227.59375 179.457031 227.59375 C 179.597656 226.242188 179.257812 224.957031 178.792969 223.894531 C 178.578125 226.738281 176.757812 228.867188 176.757812 228.867188 C 177.28125 224.5 172.59375 222.152344 172.59375 222.152344 C 161.339844 218.839844 162.636719 212.449219 162.636719 212.449219 C 160.546875 215.824219 164.125 220.714844 164.171875 220.777344 L 164.167969 220.777344 C 156.640625 217.5 155.773438 212.417969 157.03125 207.894531 C 154.960938 205.183594 150.550781 198.1875 150.550781 187.785156 C 150.550781 185.605469 150.742188 183.28125 151.191406 180.8125 C 151.191406 180.804688 151.195312 180.800781 151.195312 180.796875 C 151.308594 180.171875 151.4375 179.535156 151.585938 178.890625 C 151.585938 178.890625 151.65625 178.710938 151.792969 178.398438 C 155.089844 167.277344 163.085938 167.042969 165.246094 167.1875 C 165.285156 166.230469 165.394531 165.285156 165.65625 164.617188 C 165.65625 164.617188 165.910156 162.90625 166.4375 162.660156 C 166.441406 162.097656 166.46875 161.324219 166.566406 160.421875 C 162.957031 160.460938 150.964844 159.445312 152.757812 143.957031 C 154.863281 125.761719 166.664062 124.144531 166.664062 124.144531 C 166.664062 124.144531 166.664062 124.144531 166.660156 124.148438 C 166.59375 124.339844 158.386719 147.132812 172.441406 149.078125 C 174.0625 147.941406 176.113281 147.101562 178.714844 146.769531 C 179.382812 144.667969 180.605469 144.929688 180.605469 144.929688 C 180.605469 144.929688 183.652344 144.566406 188.753906 144.6875 C 191.394531 144.75 192.566406 145.804688 193.082031 146.804688 C 195.570312 147.164062 197.542969 147.996094 199.109375 149.105469 C 213.429688 147.335938 205.148438 124.339844 205.082031 124.148438 L 205.078125 124.144531 C 205.078125 124.144531 216.878906 125.761719 218.984375 143.957031 C 220.816406 159.785156 208.25 160.5 204.949219 160.417969 C 205.019531 161.042969 205.050781 161.605469 205.066406 162.082031 C 205.328125 162.082031 205.503906 162.085938 205.566406 162.09375 C 206.71875 162.214844 206.941406 164.035156 206.941406 164.035156 C 207.34375 164.746094 207.488281 166.003906 207.519531 167.238281 C 208.40625 167.113281 217.800781 166.097656 221.445312 178.398438 C 221.589844 178.710938 221.660156 178.890625 221.660156 178.890625 C 221.808594 179.535156 221.9375 180.171875 222.050781 180.796875 C 222.050781 180.800781 222.050781 180.808594 222.050781 180.8125 C 222.5 183.28125 222.691406 185.609375 222.691406 187.785156 C 222.691406 192.417969 221.820312 196.371094 220.664062 199.570312 C 224.722656 203.402344 223.113281 212.695312 223.113281 212.695312 Z M 223.113281 212.695312 " fill-opacity="1" fill-rule="nonzero"/><path fill="#000000" d="M 220.664062 199.570312 C 221.820312 196.367188 222.691406 192.417969 222.691406 187.785156 C 222.691406 185.605469 222.5 183.28125 222.050781 180.8125 C 222.050781 180.804688 222.050781 180.800781 222.050781 180.796875 C 221.933594 180.171875 221.804688 179.535156 221.65625 178.890625 C 221.65625 178.890625 221.585938 178.710938 221.445312 178.398438 C 217.800781 166.097656 208.402344 167.113281 207.519531 167.238281 C 207.488281 166.003906 207.34375 164.746094 206.9375 164.035156 C 206.9375 164.03125 206.71875 162.214844 205.566406 162.09375 C 205.5 162.085938 205.328125 162.082031 205.066406 162.082031 C 205.050781 161.605469 205.019531 161.042969 204.949219 160.414062 C 208.25 160.5 220.816406 159.785156 218.984375 143.957031 C 216.878906 125.761719 205.078125 124.144531 205.078125 124.144531 L 205.082031 124.148438 C 205.148438 124.339844 213.429688 147.335938 199.109375 149.105469 C 197.542969 147.996094 195.570312 147.164062 193.082031 146.804688 C 192.566406 145.804688 191.394531 144.75 188.753906 144.6875 C 183.652344 144.566406 180.605469 144.929688 180.605469 144.929688 C 180.605469 144.929688 179.382812 144.667969 178.714844 146.765625 C 176.113281 147.101562 174.0625 147.941406 172.441406 149.078125 C 158.386719 147.132812 166.59375 124.339844 166.660156 124.148438 C 166.664062 124.144531 166.664062 124.144531 166.664062 124.144531 C 166.664062 124.144531 154.863281 125.761719 152.757812 143.957031 C 150.964844 159.445312 162.957031 160.460938 166.566406 160.421875 C 166.46875 161.324219 166.441406 162.097656 166.4375 162.660156 C 165.910156 162.90625 165.65625 164.617188 165.65625 164.617188 C 165.394531 165.285156 165.285156 166.230469 165.246094 167.191406 C 163.085938 167.042969 155.089844 167.28125 151.792969 178.398438 C 151.65625 178.710938 151.585938 178.890625 151.585938 178.890625 C 151.4375 179.535156 151.308594 180.171875 151.195312 180.796875 C 151.195312 180.800781 151.191406 180.808594 151.191406 180.8125 C 150.742188 183.28125 150.550781 185.605469 150.550781 187.785156 C 150.550781 198.1875 154.960938 205.183594 157.03125 207.894531 C 155.773438 212.417969 156.640625 217.5 164.167969 220.78125 L 164.171875 220.78125 C 164.125 220.714844 160.546875 215.824219 162.636719 212.449219 C 162.636719 212.449219 161.339844 218.839844 172.59375 222.15625 C 172.59375 222.15625 177.28125 224.5 176.757812 228.867188 C 176.757812 228.867188 178.578125 226.742188 178.792969 223.894531 C 179.257812 224.960938 179.597656 226.242188 179.457031 227.59375 C 179.457031 227.59375 180.824219 224.679688 180.5625 221.867188 C 181.53125 223.035156 186.621094 229.351562 186.621094 232.808594 C 186.621094 232.808594 187.386719 232.375 187.5625 230.347656 C 187.972656 231.71875 188.371094 233.730469 187.894531 235.421875 C 187.847656 235.585938 187.796875 235.746094 187.734375 235.902344 C 187.734375 235.902344 188.601562 235.8125 189.949219 235.472656 C 194.296875 234.382812 203.601562 230.707031 204.652344 219.164062 C 204.652344 219.164062 207.648438 225.550781 202.46875 229.917969 C 202.46875 229.917969 215.261719 225.550781 213.15625 211.804688 C 213.15625 211.804688 217.527344 216.496094 214.773438 221.511719 C 214.773438 221.511719 222.171875 216.433594 220.796875 207.71875 C 221.992188 208.984375 223.015625 210.648438 223.113281 212.695312 C 223.113281 212.695312 224.722656 203.402344 220.664062 199.570312 Z M 210.628906 175.320312 C 210.914062 174.761719 211.148438 174.191406 211.292969 173.617188 L 206.203125 177.597656 C 206.214844 175.785156 206.136719 174.113281 206.070312 173.074219 C 206.070312 173.074219 206.070312 173.074219 206.070312 173.070312 C 206.074219 173.070312 206.078125 173.070312 206.078125 173.070312 L 206.078125 172.386719 C 206.273438 172.164062 206.410156 171.933594 206.507812 171.710938 C 208.207031 170.925781 213.511719 169.183594 213.765625 178.042969 C 213.957031 184.699219 210.453125 186.324219 207.839844 186.621094 C 206.925781 185.789062 206.042969 185.234375 205.210938 184.878906 C 205.667969 183.820312 205.929688 182.316406 206.066406 180.710938 C 206.820312 180.0625 208.089844 178.898438 209.207031 177.480469 C 209.988281 178.847656 211.148438 181.910156 207.605469 184.109375 C 207.605469 184.109375 213.910156 183.023438 210.628906 175.320312 Z M 205.667969 124.640625 C 205.660156 124.636719 205.640625 124.632812 205.617188 124.628906 C 205.488281 124.492188 205.355469 124.367188 205.21875 124.253906 C 205.328125 124.339844 205.496094 124.476562 205.714844 124.65625 C 205.695312 124.648438 205.675781 124.640625 205.667969 124.640625 Z M 209.589844 139.347656 C 209.589844 139.347656 209.089844 131.25 206.933594 126.671875 C 206.914062 126.621094 206.679688 125.972656 207.21875 126.007812 C 211.257812 129.878906 219.179688 139.378906 214.175781 150.75 C 214.132812 150.832031 214.082031 150.910156 214.03125 150.988281 L 211.792969 150.023438 L 213.304688 152.03125 C 213.089844 152.3125 212.867188 152.574219 212.636719 152.820312 L 210.808594 151.722656 L 211.316406 154.039062 C 211.222656 154.117188 211.125 154.195312 211.027344 154.265625 L 208.703125 152.285156 L 209.511719 155.226562 C 209.398438 155.289062 209.285156 155.347656 209.175781 155.402344 C 208.160156 154.261719 206.621094 153.015625 206.621094 153.015625 L 206.621094 156.375 C 206.519531 156.402344 206.421875 156.429688 206.324219 156.453125 C 205.285156 155.3125 203.410156 154.480469 203.410156 154.480469 C 202.683594 152.863281 201.652344 151.28125 200.1875 149.960938 C 202.660156 149.683594 210.0625 148.113281 209.589844 139.347656 Z M 203.328125 162.09375 C 201.140625 162.113281 197.566406 162.175781 193.480469 162.25 L 193.480469 148.628906 C 193.480469 148.628906 193.503906 148.375 193.453125 148 C 195.894531 148.964844 203.167969 152.640625 203.328125 162.09375 Z M 183.769531 145.65625 C 187.328125 145.535156 189.058594 145.65625 189.058594 145.65625 C 189.058594 145.65625 190.78125 145.472656 191.15625 147.535156 L 191.4375 162.285156 C 187.914062 162.351562 184.136719 162.421875 180.617188 162.484375 L 180.617188 146.871094 C 180.617188 146.871094 180.207031 145.777344 183.769531 145.65625 Z M 205.8125 164.210938 C 205.898438 165.03125 206.027344 166.695312 205.835938 168.320312 C 198.421875 169.46875 190.308594 169.660156 183.347656 169.492188 L 181.945312 167.792969 L 181.617188 169.441406 C 181.566406 169.4375 181.515625 169.4375 181.464844 169.4375 L 179.699219 167.792969 L 179.042969 169.335938 C 173.292969 169.066406 168.796875 168.609375 166.898438 168.394531 C 166.75 166.96875 166.835938 165.53125 166.921875 164.6875 C 172.328125 164.96875 193.808594 165.933594 205.8125 164.210938 Z M 190.933594 186.65625 C 190.933594 186.65625 189.339844 189.886719 186.742188 189.753906 L 186.742188 189.75 C 186.722656 189.75 186.699219 189.75 186.679688 189.75 C 186.660156 189.75 186.640625 189.75 186.621094 189.75 L 186.621094 189.753906 C 184.023438 189.886719 182.429688 186.65625 182.429688 186.65625 C 176.183594 187.664062 177.515625 183.960938 177.570312 183.808594 C 177.101562 184.34375 176.851562 184.878906 176.785156 185.410156 C 175.621094 185.027344 173.105469 184.289062 171.683594 184.5625 L 171.707031 184.574219 C 171.621094 184.578125 171.539062 184.582031 171.457031 184.585938 C 170.382812 183.429688 168.226562 180.273438 168.164062 173.578125 C 168.230469 173.589844 168.292969 173.605469 168.359375 173.609375 L 168.367188 173.609375 C 169.226562 173.824219 170.125 174.007812 171.066406 174.164062 C 170.960938 175.683594 171.527344 177.023438 172.023438 177.886719 C 170.582031 176.761719 169.761719 174.808594 169.761719 174.808594 C 169.761719 174.808594 169.195312 179.214844 174.902344 180.710938 C 175.929688 180.980469 176.8125 181.03125 177.574219 180.933594 C 176.085938 182.863281 174.253906 183.097656 174.253906 183.097656 C 177.488281 183.65625 179.824219 180.78125 180.421875 179.957031 C 181.25 180.667969 184.136719 183.210938 184.675781 184.5625 C 184.679688 184.5625 184.683594 184.558594 184.691406 184.550781 C 184.542969 183.933594 184.058594 182.019531 183.382812 180.304688 C 184.046875 181.15625 184.652344 181.988281 184.851562 182.441406 C 184.851562 182.441406 184.167969 179.347656 182.917969 177.5 C 183.3125 177.140625 183.636719 176.714844 183.90625 176.265625 C 184.175781 175.820312 184.386719 175.359375 184.550781 174.929688 C 185.0625 174.921875 185.570312 174.910156 186.078125 174.890625 L 186.683594 179.378906 L 187.464844 174.84375 C 187.910156 174.824219 188.347656 174.804688 188.78125 174.78125 C 189.109375 175.679688 189.648438 176.753906 190.488281 177.515625 C 189.246094 179.367188 188.570312 182.441406 188.570312 182.441406 C 188.761719 182.003906 189.339844 181.203125 189.976562 180.382812 C 189.277344 182.164062 188.792969 184.144531 188.675781 184.640625 C 188.679688 184.636719 188.683594 184.636719 188.683594 184.636719 C 189.148438 183.304688 192.128906 180.683594 192.96875 179.957031 C 193.5625 180.78125 195.898438 183.65625 199.132812 183.097656 C 199.132812 183.097656 197.300781 182.863281 195.8125 180.933594 C 196.574219 181.03125 197.457031 180.980469 198.484375 180.710938 C 204.191406 179.214844 203.628906 174.808594 203.628906 174.808594 C 203.628906 174.808594 202.710938 176.992188 201.113281 178.070312 C 202.464844 176.503906 202.804688 174.582031 202.878906 173.515625 C 203.175781 173.476562 203.453125 173.441406 203.714844 173.40625 C 203.761719 173.417969 203.957031 173.410156 204.394531 173.367188 C 204.554688 173.351562 204.707031 173.308594 204.851562 173.25 C 204.910156 173.242188 204.96875 173.234375 205.027344 173.226562 C 205.019531 179.722656 203.066406 182.964844 201.929688 184.296875 C 200.023438 184.0625 197.921875 184.96875 196.601562 185.691406 C 196.589844 185.070312 196.34375 184.4375 195.792969 183.808594 C 195.847656 183.960938 197.179688 187.664062 190.933594 186.65625 Z M 173.875 178.246094 C 172.414062 177.125 172.058594 175.449219 172 174.308594 C 172.214844 174.339844 172.429688 174.371094 172.644531 174.398438 C 172.488281 176.269531 173.347656 177.613281 173.875 178.246094 Z M 180.40625 178.488281 C 180.597656 178.488281 180.785156 178.476562 180.960938 178.449219 C 179.996094 179.339844 178.789062 179.621094 178.789062 179.621094 C 174.617188 180.183594 174.160156 175.375 174.160156 175.375 C 175.96875 176.859375 178.382812 178.464844 180.40625 178.488281 Z M 176.058594 174.738281 C 178.441406 174.910156 180.933594 174.96875 183.417969 174.945312 C 182.300781 175.945312 180.761719 176.90625 179.273438 176.464844 C 178.128906 176.125 176.996094 175.433594 176.058594 174.738281 Z M 200.710938 174.070312 C 200.835938 173.953125 200.953125 173.839844 201.0625 173.738281 C 201.0625 173.738281 201.0625 173.738281 201.066406 173.738281 C 201.304688 173.710938 201.542969 173.679688 201.769531 173.652344 C 201.855469 176.550781 200.015625 178.09375 199.167969 178.648438 C 199.164062 178.648438 199.164062 178.648438 199.164062 178.648438 C 199.15625 178.652344 199.144531 178.648438 199.132812 178.648438 C 199.132812 178.648438 201.113281 176.925781 200.710938 174.070312 Z M 194.597656 179.621094 C 194.597656 179.621094 193.390625 179.339844 192.425781 178.449219 C 192.601562 178.476562 192.789062 178.488281 192.980469 178.488281 C 195.003906 178.464844 197.417969 176.859375 199.226562 175.375 C 199.226562 175.375 198.769531 180.183594 194.597656 179.621094 Z M 196.324219 175.425781 C 195.628906 175.859375 194.875 176.242188 194.113281 176.464844 C 192.523438 176.9375 190.871094 175.804688 189.742188 174.734375 C 192.8125 174.5625 195.707031 174.3125 198.1875 174.058594 C 197.660156 174.5 197.023438 174.988281 196.324219 175.425781 Z M 178.460938 147.847656 C 178.402344 148.203125 178.359375 148.605469 178.324219 149.050781 C 178.089844 152.65625 178.230469 159.738281 178.296875 162.523438 C 173.921875 162.597656 170.183594 162.65625 168.1875 162.664062 C 168.050781 152.175781 176.535156 148.539062 178.460938 147.847656 Z M 166.523438 124.253906 C 166.386719 124.367188 166.253906 124.492188 166.125 124.628906 C 166.101562 124.632812 166.082031 124.636719 166.074219 124.640625 C 166.0625 124.640625 166.046875 124.648438 166.027344 124.65625 C 166.246094 124.476562 166.414062 124.339844 166.523438 124.253906 Z M 165.417969 156.453125 C 165.324219 156.425781 165.226562 156.402344 165.125 156.375 L 165.125 153.015625 C 165.125 153.015625 163.582031 154.261719 162.566406 155.402344 C 162.457031 155.34375 162.34375 155.289062 162.230469 155.226562 L 163.039062 152.285156 L 160.714844 154.265625 C 160.617188 154.195312 160.519531 154.117188 160.425781 154.039062 L 160.9375 151.722656 L 159.101562 152.820312 C 158.875 152.574219 158.652344 152.3125 158.4375 152.03125 L 159.949219 150.023438 L 157.714844 150.988281 C 157.664062 150.910156 157.609375 150.832031 157.5625 150.75 C 152.5625 139.378906 160.480469 129.878906 164.523438 126.007812 C 165.0625 125.972656 164.828125 126.621094 164.808594 126.671875 C 162.652344 131.25 162.148438 139.347656 162.148438 139.347656 C 161.695312 147.886719 168.707031 149.597656 171.359375 149.9375 C 169.835938 151.300781 168.777344 152.945312 168.046875 154.617188 C 167.480469 154.898438 166.207031 155.585938 165.417969 156.453125 Z M 159.476562 178.042969 C 159.703125 170.136719 163.953125 170.671875 166.070312 171.441406 C 166.1875 171.925781 166.472656 172.566406 167.171875 173.078125 C 167.105469 174.117188 167.027344 175.78125 167.039062 177.585938 L 161.96875 173.617188 C 162.109375 174.191406 162.34375 174.757812 162.632812 175.316406 C 159.347656 183.023438 165.65625 184.109375 165.65625 184.109375 C 162.109375 181.910156 163.269531 178.847656 164.050781 177.480469 C 165.160156 178.886719 166.417969 180.046875 167.175781 180.695312 C 167.347656 182.707031 167.707031 184.554688 168.40625 185.574219 C 167.917969 185.863281 167.414062 186.222656 166.902344 186.664062 C 164.441406 186.789062 159.246094 186.109375 159.476562 178.042969 Z M 158.855469 196.832031 C 167.304688 196.542969 169.65625 191.734375 169.742188 191.554688 C 167.757812 194.53125 161.242188 195.65625 158.664062 195.996094 C 160.933594 195.566406 164.285156 193.851562 167.738281 188.230469 C 167.738281 188.230469 170.253906 185.488281 174.121094 185.625 C 174.253906 185.628906 175.640625 185.710938 176.902344 186.574219 C 176.976562 186.796875 177.078125 187.023438 177.207031 187.242188 L 175.8125 189.21875 L 177.964844 188.261719 C 178.265625 188.589844 178.613281 188.910156 178.988281 189.21875 L 178.300781 191.023438 L 179.875 189.890625 C 180.496094 190.332031 181.164062 190.738281 181.828125 191.113281 C 181.84375 191.121094 181.855469 191.125 181.871094 191.132812 L 181.460938 192.71875 L 182.949219 191.710938 C 184.597656 192.550781 186.058594 193.128906 186.554688 193.316406 C 186.570312 193.441406 186.601562 193.558594 186.652344 193.652344 C 186.613281 193.71875 186.570312 193.78125 186.527344 193.847656 C 185.558594 195.304688 183.46875 197.476562 179.566406 197.613281 C 181.105469 195.964844 180.789062 194.054688 180.789062 194.054688 L 179.289062 195.789062 C 178.542969 196.421875 177.492188 197.070312 176.089844 197.457031 C 175.652344 197.574219 175.179688 197.667969 174.671875 197.726562 C 175.679688 196.441406 176.476562 194.359375 176.476562 194.359375 L 175.164062 195.425781 C 174.691406 195.773438 174.105469 196.160156 173.429688 196.527344 C 171.933594 197.347656 170.011719 198.0625 167.960938 197.972656 C 170.335938 196.640625 171.792969 193.976562 172.261719 193.007812 C 172.375 192.796875 172.421875 192.671875 172.429688 192.644531 L 169.226562 195.164062 C 168.378906 195.578125 165.410156 196.960938 162.328125 197.429688 C 160.628906 197.675781 159.519531 197.265625 158.855469 196.832031 Z M 174.78125 198.597656 Z M 214.234375 206.054688 C 213.90625 206.777344 213.453125 207.519531 212.824219 208.257812 C 212.769531 206.964844 212.359375 205.324219 210.847656 204.304688 C 210.847656 204.304688 211.507812 206.191406 210.851562 208.644531 C 210.949219 206.703125 210.367188 203.609375 206.097656 202.148438 C 207.632812 204.289062 207.335938 207.0625 206.582031 209.722656 C 206.53125 209.902344 206.445312 210.039062 206.339844 210.144531 C 205.957031 211.203125 205.363281 212.304688 204.472656 213.429688 C 204.472656 213.429688 204.472656 213.429688 204.472656 213.433594 C 204.519531 207.238281 199.707031 205.605469 197.886719 205.210938 C 197.902344 205.230469 197.917969 205.246094 197.929688 205.265625 C 197.953125 205.292969 197.976562 205.320312 198 205.351562 C 198.113281 205.5 198.230469 205.644531 198.347656 205.789062 C 198.519531 206.007812 198.695312 206.222656 198.863281 206.4375 C 198.890625 206.472656 198.914062 206.503906 198.9375 206.539062 C 199.011719 206.632812 199.082031 206.722656 199.152344 206.816406 C 199.175781 206.84375 199.195312 206.871094 199.214844 206.898438 C 199.292969 207.007812 199.367188 207.117188 199.445312 207.226562 C 199.460938 207.25 199.476562 207.273438 199.492188 207.296875 C 199.777344 207.722656 200.03125 208.175781 200.230469 208.683594 L 200.230469 208.6875 C 200.292969 208.847656 200.351562 209.011719 200.402344 209.1875 C 200.96875 211.132812 201.046875 213.183594 200.300781 215.097656 C 200.011719 215.832031 199.671875 216.546875 199.273438 217.238281 C 199.4375 215.042969 198.847656 213.28125 198.847656 213.28125 C 198.847656 213.28125 198.273438 216.34375 196.035156 219.648438 C 196.128906 217.34375 195.75 215.445312 195.75 215.445312 L 195.648438 216.207031 C 195.246094 218.171875 193.75 219.667969 192.886719 220.386719 C 192.460938 218.589844 191.722656 216.796875 191.722656 216.796875 L 190.921875 219.714844 C 190.339844 221.082031 189.566406 222.289062 188.980469 223.105469 C 188.183594 220.9375 185.34375 214.226562 179.5625 210.597656 C 179.636719 210.707031 180.886719 212.53125 181.875 214.640625 C 180.550781 213.683594 179.058594 212.90625 177.402344 212.449219 C 171.898438 210.949219 170.976562 208.269531 170.980469 206.636719 C 170.9375 206.460938 170.910156 206.28125 170.894531 206.097656 C 170.988281 205.128906 171.191406 204.320312 171.542969 203.800781 C 171.542969 203.800781 166.648438 207.171875 167.980469 213.96875 C 166.507812 211.78125 165.136719 208.902344 165.976562 206.546875 C 165.976562 206.546875 164.273438 208.277344 164.933594 211.765625 C 163.179688 209.523438 162.164062 206.757812 163.605469 203.71875 C 163.492188 203.789062 160.160156 205.929688 159.566406 210.964844 C 159.476562 208.621094 159.847656 205.820312 161 202.503906 C 161.007812 202.480469 162.265625 200.160156 163.492188 198.691406 C 163.734375 198.65625 163.976562 198.613281 164.226562 198.554688 C 165.6875 198.925781 167.894531 199.253906 170.183594 198.769531 C 170.488281 198.707031 170.792969 198.625 171.101562 198.53125 C 171.917969 198.632812 173.03125 198.71875 174.210938 198.648438 C 173.425781 200.011719 173.324219 203.03125 173.324219 203.03125 C 174.152344 200.578125 176.792969 199.566406 178.15625 199.199219 C 178.710938 199.351562 179.347656 199.515625 180.054688 199.675781 C 179.417969 203.808594 181.183594 206.0625 181.183594 206.0625 L 181.367188 203.773438 C 181.675781 202.105469 182.3125 200.953125 182.902344 200.199219 C 184.304688 200.402344 185.839844 200.535156 187.433594 200.535156 C 188.75 203.394531 191.160156 209.742188 189.414062 214.714844 C 189.414062 214.714844 192.632812 208.640625 189.480469 200.453125 C 189.738281 200.433594 189.996094 200.410156 190.25 200.378906 C 191 200.492188 192.179688 200.945312 193.476562 202.503906 C 193.476562 202.503906 193.1875 201.191406 192.210938 200.074219 C 192.917969 199.933594 193.625 199.75 194.324219 199.527344 C 195.203125 199.878906 196.238281 200.460938 197.050781 201.390625 L 198.042969 203.03125 C 198.042969 203.03125 198.042969 203.023438 198.042969 203.011719 C 198.023438 202.777344 197.78125 199.964844 196.914062 198.464844 C 197.21875 198.3125 197.519531 198.148438 197.816406 197.976562 C 199.808594 198.589844 202.035156 198.464844 203.421875 198.289062 C 203.742188 198.386719 204.058594 198.46875 204.378906 198.53125 C 206.652344 199.007812 208.839844 198.679688 210.296875 198.3125 C 210.507812 198.359375 210.714844 198.402344 210.921875 198.4375 C 212.003906 198.621094 212.96875 198.613281 213.820312 198.484375 C 214.421875 199.582031 215.777344 202.652344 214.234375 206.054688 Z M 195.6875 199.140625 C 195.65625 199.117188 195.625 199.09375 195.589844 199.070312 C 195.605469 199.066406 195.621094 199.058594 195.632812 199.050781 Z M 201.605469 197.539062 L 201.527344 197.464844 C 201.570312 197.488281 201.609375 197.515625 201.652344 197.539062 C 201.636719 197.539062 201.621094 197.539062 201.605469 197.539062 Z M 215.203125 196.847656 C 214.523438 197.164062 213.542969 197.386719 212.191406 197.1875 C 211.042969 197.011719 209.90625 196.710938 208.894531 196.378906 C 206.753906 195.679688 205.140625 194.84375 205.058594 194.800781 L 205.054688 194.800781 C 205.054688 194.800781 204.726562 194.589844 204.285156 194.28125 L 202.09375 192.402344 C 202.09375 192.402344 203.253906 196.222656 204.851562 197.628906 C 203.222656 197.367188 201.738281 196.6875 200.578125 195.992188 C 199.179688 195.160156 198.246094 194.308594 198.074219 194.144531 L 198.042969 194.117188 C 198.042969 194.117188 198.191406 196.1875 199.371094 197.414062 C 199.195312 197.382812 199.015625 197.351562 198.847656 197.316406 C 196.828125 196.867188 195.484375 195.859375 194.6875 195.039062 L 193.730469 193.8125 C 193.730469 193.8125 193.03125 195.613281 194.996094 197.371094 C 191.457031 197.261719 189.402344 195.484375 188.320312 194.0625 C 188.199219 193.90625 188.09375 193.75 187.996094 193.605469 C 189.183594 192.972656 190.4375 191.921875 191.054688 191.375 C 191.164062 191.320312 191.277344 191.257812 191.386719 191.195312 L 192.511719 192.113281 L 192.398438 190.609375 C 192.964844 190.257812 193.519531 189.886719 194.027344 189.496094 L 195.277344 190.121094 L 194.777344 188.871094 C 195.183594 188.507812 195.539062 188.125 195.828125 187.738281 L 197.726562 188.773438 L 196.613281 186.742188 C 198.265625 185.570312 200.113281 185.402344 200.5 185.378906 C 200.527344 185.378906 200.550781 185.375 200.578125 185.375 L 200.675781 185.375 C 202.644531 185.375 204.25 186.113281 205.316406 186.804688 C 205.828125 187.445312 207.140625 189.054688 208.726562 190.78125 C 208.730469 190.785156 208.738281 190.792969 208.742188 190.796875 C 209.753906 192.058594 210.734375 193.019531 211.671875 193.746094 C 211.722656 193.792969 211.773438 193.839844 211.824219 193.886719 C 209.324219 193.226562 206.539062 192.117188 206.539062 192.117188 C 206.640625 192.308594 206.761719 192.488281 206.890625 192.664062 C 209.417969 196.332031 213.8125 196.792969 215.207031 196.84375 C 215.207031 196.84375 215.207031 196.847656 215.203125 196.847656 Z M 215.203125 196.847656 " fill-opacity="1" fill-rule="nonzero"/></g><g fill="#004aad" fill-opacity="1"><g transform="translate(119.247264, 141.277706)"><g><path d="M 9.339844 -11.03125 C 12.832031 -15.15625 13.683594 -18.921875 9.800781 -22.210938 L 9.777344 -22.230469 C 7.703125 -23.984375 5.0625 -24.144531 2.753906 -22.429688 C 3.550781 -24.460938 3.097656 -26.511719 1.222656 -28.101562 L 1.199219 -28.121094 C -1.414062 -30.332031 -4.308594 -30.414062 -8.132812 -25.902344 L -16.6875 -15.796875 L 0.824219 -0.972656 Z M -7.265625 -16.902344 L -3.734375 -21.066406 C -2.949219 -21.996094 -2.371094 -22.0625 -1.726562 -21.515625 L -1.703125 -21.496094 C -1.054688 -20.949219 -1.007812 -20.351562 -1.792969 -19.421875 L -5.320312 -15.253906 Z M -1.824219 -12.292969 L 2.164062 -17 C 3.003906 -17.992188 3.71875 -18.09375 4.429688 -17.488281 L 4.453125 -17.472656 C 5.140625 -16.886719 5.164062 -16.164062 4.320312 -15.171875 L 0.335938 -10.464844 Z M -1.824219 -12.292969 "/></g></g></g><g fill="#004aad" fill-opacity="1"><g transform="translate(146.74896, 114.070436)"><g><path d="M 7.402344 -18.234375 L -0.457031 -24.34375 L -7.816406 -21.570312 L 6.359375 -11.128906 L 9.242188 -3.476562 L 15.726562 -5.921875 L 12.847656 -13.570312 L 16.621094 -30.769531 L 9.285156 -28.011719 Z M 7.402344 -18.234375 "/></g></g></g><g fill="#004aad" fill-opacity="1"><g transform="translate(186.698345, 103.30858)"><g><path d="M 12.351562 2.328125 C 19.503906 3.441406 24.03125 0.683594 24.996094 -5.519531 L 27.097656 -18.996094 L 20.25 -20.0625 L 18.398438 -8.183594 C 17.851562 -4.6875 16.164062 -3.777344 13.371094 -4.214844 C 10.574219 -4.648438 9.242188 -6.03125 9.789062 -9.523438 L 11.640625 -21.40625 L 4.792969 -22.472656 L 2.691406 -9 C 1.722656 -2.792969 5.195312 1.210938 12.351562 2.328125 Z M 12.351562 2.328125 "/></g></g></g><g fill="#004aad" fill-opacity="1"><g transform="translate(225.272667, 113.865277)"><g><path d="M 14.367188 3.089844 L 17.699219 -1.796875 L 7.273438 -8.90625 L 3.941406 -4.023438 Z M 14.367188 3.089844 "/></g></g></g><g fill="#004aad" fill-opacity="1"><g transform="translate(248.295478, 133.47001)"><g><path d="M 4.757812 6.683594 L 23.449219 -6.621094 L 19.429688 -12.269531 L 0.738281 1.039062 Z M 4.757812 6.683594 "/></g></g></g><g fill="#004aad" fill-opacity="1"><g transform="translate(138.69219, 267.194625)"><g><path d="M 16.84375 1.40625 C 17.0625 1.5 17.210938 1.65625 17.296875 1.875 L 18.171875 4.15625 C 17.003906 4.820312 15.75 5.175781 14.40625 5.21875 C 13.0625 5.257812 11.601562 4.960938 10.03125 4.328125 C 8.601562 3.742188 7.421875 2.976562 6.484375 2.03125 C 5.546875 1.082031 4.851562 0.0195312 4.40625 -1.15625 C 3.96875 -2.34375 3.773438 -3.617188 3.828125 -4.984375 C 3.878906 -6.359375 4.191406 -7.742188 4.765625 -9.140625 C 5.148438 -10.085938 5.617188 -10.941406 6.171875 -11.703125 C 6.734375 -12.472656 7.351562 -13.132812 8.03125 -13.6875 C 8.71875 -14.238281 9.457031 -14.691406 10.25 -15.046875 C 11.050781 -15.398438 11.878906 -15.640625 12.734375 -15.765625 C 13.585938 -15.890625 14.472656 -15.890625 15.390625 -15.765625 C 16.304688 -15.640625 17.226562 -15.390625 18.15625 -15.015625 C 18.863281 -14.722656 19.5 -14.390625 20.0625 -14.015625 C 20.632812 -13.640625 21.148438 -13.234375 21.609375 -12.796875 C 22.078125 -12.359375 22.472656 -11.890625 22.796875 -11.390625 C 23.128906 -10.890625 23.40625 -10.382812 23.625 -9.875 L 21.5625 -8.59375 C 21.4375 -8.519531 21.296875 -8.460938 21.140625 -8.421875 C 20.984375 -8.390625 20.800781 -8.414062 20.59375 -8.5 C 20.382812 -8.582031 20.203125 -8.738281 20.046875 -8.96875 C 19.890625 -9.207031 19.691406 -9.476562 19.453125 -9.78125 C 19.222656 -10.09375 18.90625 -10.421875 18.5 -10.765625 C 18.09375 -11.109375 17.53125 -11.425781 16.8125 -11.71875 C 16.007812 -12.039062 15.21875 -12.191406 14.4375 -12.171875 C 13.65625 -12.148438 12.914062 -11.960938 12.21875 -11.609375 C 11.53125 -11.265625 10.890625 -10.75 10.296875 -10.0625 C 9.703125 -9.375 9.203125 -8.519531 8.796875 -7.5 C 8.378906 -6.476562 8.148438 -5.507812 8.109375 -4.59375 C 8.078125 -3.675781 8.195312 -2.84375 8.46875 -2.09375 C 8.738281 -1.351562 9.140625 -0.703125 9.671875 -0.140625 C 10.210938 0.410156 10.859375 0.835938 11.609375 1.140625 C 12.054688 1.316406 12.472656 1.457031 12.859375 1.5625 C 13.242188 1.664062 13.609375 1.726562 13.953125 1.75 C 14.304688 1.769531 14.65625 1.753906 15 1.703125 C 15.34375 1.660156 15.707031 1.566406 16.09375 1.421875 C 16.21875 1.378906 16.34375 1.351562 16.46875 1.34375 C 16.601562 1.34375 16.726562 1.363281 16.84375 1.40625 Z M 16.84375 1.40625 "/></g></g></g><g fill="#004aad" fill-opacity="1"><g transform="translate(178.248719, 278.373029)"><g><path d="M 13.375 -16.5 C 13.25 -16.289062 13.113281 -16.132812 12.96875 -16.03125 C 12.832031 -15.9375 12.660156 -15.890625 12.453125 -15.890625 C 12.242188 -15.890625 12.015625 -15.960938 11.765625 -16.109375 C 11.523438 -16.253906 11.242188 -16.414062 10.921875 -16.59375 C 10.609375 -16.769531 10.242188 -16.929688 9.828125 -17.078125 C 9.410156 -17.222656 8.925781 -17.300781 8.375 -17.3125 C 7.394531 -17.3125 6.65625 -17.09375 6.15625 -16.65625 C 5.664062 -16.226562 5.414062 -15.660156 5.40625 -14.953125 C 5.40625 -14.492188 5.539062 -14.113281 5.8125 -13.8125 C 6.082031 -13.507812 6.429688 -13.25 6.859375 -13.03125 C 7.296875 -12.820312 7.789062 -12.628906 8.34375 -12.453125 C 8.90625 -12.273438 9.476562 -12.082031 10.0625 -11.875 C 10.644531 -11.664062 11.210938 -11.425781 11.765625 -11.15625 C 12.316406 -10.882812 12.8125 -10.535156 13.25 -10.109375 C 13.6875 -9.691406 14.035156 -9.179688 14.296875 -8.578125 C 14.566406 -7.984375 14.703125 -7.257812 14.703125 -6.40625 C 14.691406 -5.46875 14.519531 -4.585938 14.1875 -3.765625 C 13.863281 -2.953125 13.390625 -2.242188 12.765625 -1.640625 C 12.148438 -1.046875 11.390625 -0.578125 10.484375 -0.234375 C 9.585938 0.109375 8.566406 0.273438 7.421875 0.265625 C 6.773438 0.265625 6.128906 0.195312 5.484375 0.0625 C 4.835938 -0.0703125 4.210938 -0.257812 3.609375 -0.5 C 3.015625 -0.738281 2.453125 -1.023438 1.921875 -1.359375 C 1.398438 -1.703125 0.941406 -2.070312 0.546875 -2.46875 L 1.8125 -4.46875 C 1.914062 -4.625 2.050781 -4.75 2.21875 -4.84375 C 2.394531 -4.945312 2.578125 -5 2.765625 -5 C 3.015625 -5 3.28125 -4.898438 3.5625 -4.703125 C 3.851562 -4.503906 4.179688 -4.289062 4.546875 -4.0625 C 4.910156 -3.84375 5.332031 -3.632812 5.8125 -3.4375 C 6.289062 -3.25 6.875 -3.15625 7.5625 -3.15625 C 8.550781 -3.144531 9.316406 -3.363281 9.859375 -3.8125 C 10.410156 -4.269531 10.6875 -4.945312 10.6875 -5.84375 C 10.695312 -6.351562 10.566406 -6.769531 10.296875 -7.09375 C 10.023438 -7.414062 9.671875 -7.6875 9.234375 -7.90625 C 8.804688 -8.125 8.316406 -8.3125 7.765625 -8.46875 C 7.210938 -8.632812 6.644531 -8.8125 6.0625 -9 C 5.476562 -9.195312 4.90625 -9.425781 4.34375 -9.6875 C 3.789062 -9.957031 3.300781 -10.3125 2.875 -10.75 C 2.445312 -11.1875 2.097656 -11.722656 1.828125 -12.359375 C 1.566406 -13.003906 1.4375 -13.800781 1.4375 -14.75 C 1.445312 -15.519531 1.601562 -16.257812 1.90625 -16.96875 C 2.207031 -17.6875 2.648438 -18.320312 3.234375 -18.875 C 3.828125 -19.425781 4.550781 -19.867188 5.40625 -20.203125 C 6.269531 -20.535156 7.253906 -20.703125 8.359375 -20.703125 C 9.597656 -20.691406 10.738281 -20.492188 11.78125 -20.109375 C 12.832031 -19.722656 13.71875 -19.1875 14.4375 -18.5 Z M 13.375 -16.5 "/></g></g></g><g fill="#004aad" fill-opacity="1"><g transform="translate(216.267092, 274.651135)"><g><path d="M 9.171875 -12.046875 L 4.78125 -17.078125 C 4.53125 -17.328125 4.253906 -17.628906 3.953125 -17.984375 C 3.648438 -18.347656 3.347656 -18.75 3.046875 -19.1875 C 3.109375 -18.632812 3.148438 -18.125 3.171875 -17.65625 C 3.203125 -17.1875 3.21875 -16.773438 3.21875 -16.421875 L 3.5 -9.796875 Z M 18.6875 -7.46875 L 15.625 -6.25 C 15.28125 -6.101562 14.96875 -6.070312 14.6875 -6.15625 C 14.40625 -6.238281 14.164062 -6.382812 13.96875 -6.59375 L 11.21875 -9.71875 L 3.625 -6.6875 L 3.796875 -2.53125 C 3.785156 -2.257812 3.707031 -1.992188 3.5625 -1.734375 C 3.414062 -1.472656 3.175781 -1.273438 2.84375 -1.140625 L -0.234375 0.09375 L -0.421875 -21.9375 L 3.625 -23.5625 Z M 18.6875 -7.46875 "/></g></g></g></svg>